<svg width="12" height="15" viewBox="0 0 12 15" fill="none" xmlns="http://www.w3.org/2000/svg">
<path d="M6.27344 13.4779C6.27344 13.8921 5.93765 14.2279 5.52344 14.2279C5.10922 14.2279 4.77344 13.8921 4.77344 13.4779L5.52344 13.4779L6.27344 13.4779ZM4.99311 0.219653C5.286 -0.0732405 5.76087 -0.0732405 6.05377 0.219653L10.8267 4.99262C11.1196 5.28552 11.1196 5.76039 10.8267 6.05328C10.5338 6.34618 10.059 6.34618 9.76608 6.05328L5.52344 1.81064L1.2808 6.05328C0.987904 6.34618 0.51303 6.34618 0.220137 6.05328C-0.0727566 5.76039 -0.0727566 5.28552 0.220137 4.99262L4.99311 0.219653ZM5.52344 13.4779L4.77344 13.4779L4.77344 0.749983L5.52344 0.749983L6.27344 0.749983L6.27344 13.4779L5.52344 13.4779Z" fill="black"/>
</svg>
