<svg width="12" height="15" viewBox="0 0 12 15" fill="none" xmlns="http://www.w3.org/2000/svg">
<path d="M6.27344 0.75C6.27344 0.335786 5.93765 2.46972e-09 5.52344 0C5.10922 -2.46972e-09 4.77344 0.335786 4.77344 0.75L5.52344 0.75L6.27344 0.75ZM4.99311 14.0083C5.286 14.3011 5.76087 14.3011 6.05377 14.0083L10.8267 9.23528C11.1196 8.94239 11.1196 8.46752 10.8267 8.17462C10.5338 7.88173 10.059 7.88173 9.76608 8.17462L5.52344 12.4173L1.2808 8.17462C0.987904 7.88173 0.51303 7.88173 0.220137 8.17462C-0.0727568 8.46751 -0.0727568 8.94239 0.220137 9.23528L4.99311 14.0083ZM5.52344 0.75L4.77344 0.75L4.77344 13.4779L5.52344 13.4779L6.27344 13.4779L6.27344 0.75L5.52344 0.75Z" fill="black"/>
</svg>
