<svg width="21" height="21" viewBox="0 0 21 21" fill="none" xmlns="http://www.w3.org/2000/svg">
<path d="M12.4688 0C14.6434 0 16.4062 1.76288 16.4062 3.9375H20.3438C20.7062 3.9375 21 4.23131 21 4.59375C21 4.95619 20.7062 5.25 20.3438 5.25L18.375 5.24934V17.0625C18.375 19.2371 16.6121 21 14.4375 21H6.5625C4.38788 21 2.625 19.2371 2.625 17.0625V5.25H0.65625C0.293813 5.25 0 4.95619 0 4.59375C0 4.23131 0.293813 3.9375 0.65625 3.9375H4.59375C4.59375 1.76288 6.35663 0 8.53125 0H12.4688ZM17.0625 5.25H3.9375V17.0625C3.9375 18.4683 5.0426 19.616 6.43149 19.6843L6.5625 19.6875H14.4375C15.8433 19.6875 16.991 18.5824 17.0593 17.1935L17.0625 17.0625V5.25ZM8.53125 9.1875C8.89369 9.1875 9.1875 9.48131 9.1875 9.84375V14.4375C9.1875 14.7999 8.89369 15.0938 8.53125 15.0938C8.16881 15.0938 7.875 14.7999 7.875 14.4375V9.84375C7.875 9.48131 8.16881 9.1875 8.53125 9.1875ZM12.4688 9.1875C12.8312 9.1875 13.125 9.48131 13.125 9.84375V14.4375C13.125 14.7999 12.8312 15.0938 12.4688 15.0938C12.1063 15.0938 11.8125 14.7999 11.8125 14.4375V9.84375C11.8125 9.48131 12.1063 9.1875 12.4688 9.1875ZM12.4688 1.3125H8.53125C7.12543 1.3125 5.97773 2.4176 5.90946 3.80649L5.90625 3.9375H10.5H15.0938C15.0938 2.53168 13.9886 1.38398 12.5998 1.31571L12.4688 1.3125Z" fill="#B0B0B0"/>
</svg>
